<?xml version="1.0" encoding="UTF-8"?>
<!-- Generator: Adobe Illustrator 25.2.1, SVG Export Plug-In . SVG Version: 6.00 Build 0)  -->
<svg xmlns="http://www.w3.org/2000/svg" xmlns:xlink="http://www.w3.org/1999/xlink" version="1.1" id="Capa_1" x="0px" y="0px" viewBox="0 0 512 512" style="enable-background:new 0 0 512 512;" xml:space="preserve" width="512" height="512">
<g>
	<g>
		<g>
			<path style="fill:#F8FAFF;" d="M223.249,71.831c-9.305-20.954-25.846-37.849-46.583-47.57     c-12.602-5.904-26.61-9.028-40.505-9.028c-8.477,0-16.905,1.133-25.054,3.372c-0.689,0.191-1.268,0.64-1.628,1.269     c-0.361,0.632-0.453,1.362-0.264,2.054c0.387,1.408,1.915,2.279,3.326,1.894c7.601-2.087,15.456-3.146,23.348-3.146     c35.677,0,68.027,20.943,82.411,53.351c12.128,27.325,9.848,58.818-6.088,84.229c-0.644,0.95-0.719,2.097-0.201,3.07     c0.47,0.884,1.336,1.433,2.26,1.433c0.556,0,1.625-0.21,2.535-1.64C233.695,134.174,236.104,100.794,223.249,71.831z"/>
			<path style="fill:#F8FAFF;" d="M119.938,198.735c-29.201-5.434-53.798-24.813-65.796-51.845     c-6.884-15.505-9.24-32.534-6.816-49.242c0.103-0.713-0.075-1.426-0.509-2.006c-0.434-0.58-1.065-0.955-1.78-1.057     c-1.478-0.228-2.857,0.835-3.067,2.287c-2.571,17.717-0.074,35.772,7.223,52.218c12.762,28.745,38.93,49.306,70.033,55.011     c0.295,0.041,0.577,0.059,0.838,0.059c2.069,0,3.095-1.137,3.196-2.266C123.367,200.634,122.382,199.167,119.938,198.735z"/>
			<path style="fill:#F8FAFF;" d="M69.183,98.427c-1.484-0.225-2.86,0.832-3.075,2.279c-3.371,22.537,4.332,45.451,20.611,61.291     c0.508,0.492,1.178,0.763,1.887,0.763c0.304,0,0.604-0.049,0.893-0.15c0.394-0.14,0.757-0.371,1.047-0.672     c0.506-0.52,0.78-1.202,0.77-1.923c-0.01-0.722-0.303-1.398-0.823-1.904c-15.03-14.624-22.144-35.785-19.032-56.604     C71.682,100.036,70.663,98.652,69.183,98.427z"/>
			<path style="fill:#F8FAFF;" d="M51.043,85.682c0.196,0.04,0.39,0.058,0.581,0.058c1.374,0,2.57-0.975,2.843-2.321     c4.571-22.525,19.864-41.627,40.906-51.1c0.706-0.317,1.247-0.892,1.521-1.616c0.277-0.727,0.25-1.513-0.068-2.22     c-0.633-1.414-2.409-2.097-3.834-1.455c-22.742,10.235-39.27,30.884-44.213,55.234c-0.221,1.084,0.182,2.181,1.058,2.864     C50.193,85.402,50.609,85.593,51.043,85.682z"/>
			<path style="fill:#F8FAFF;" d="M177.504,53.648c-12.067-8.65-26.342-13.22-41.282-13.22c-17.97,0-35.061,6.661-48.126,18.756     c-3.487,3.229-6.678,6.854-9.488,10.77c-0.424,0.586-0.591,1.302-0.476,2.014c0.118,0.713,0.506,1.342,1.096,1.762     c1.171,0.839,2.94,0.547,3.777-0.621c2.584-3.605,5.533-6.952,8.768-9.951c12.064-11.171,27.85-17.324,44.448-17.324     c13.801,0,26.986,4.224,38.128,12.215c23.795,17.055,33.369,48.194,23.277,75.75c-0.507,1.579,0.134,3.064,1.594,3.689     c0.308,0.133,0.651,0.204,0.991,0.204c1.084,0,1.987-0.651,2.418-1.755C213.729,106.047,203.398,72.21,177.504,53.648z"/>
		</g>
		<g>
			<path style="fill-rule:evenodd;clip-rule:evenodd;fill:#F8FAFF;" d="M38.052,306.518v90.982c0,7.69,6.508,13.919,14.536,13.919     h252.463c8.026,0,14.532-6.229,14.532-13.919v-90.982H38.052z"/>
			<g>
				<path style="fill-rule:evenodd;clip-rule:evenodd;fill:#FF4E4E;" d="M319.583,294.805c0-7.689-6.505-13.922-14.532-13.922      H52.588c-8.028,0-14.536,6.233-14.536,13.922v11.713h281.53V294.805z"/>
				<g>
					<path style="fill:#F8FAFF;" d="M54.581,294.081c0,2.377-1.925,4.303-4.304,4.303c-2.371,0-4.301-1.926-4.301-4.303       c0-2.374,1.929-4.302,4.301-4.302C52.656,289.779,54.581,291.707,54.581,294.081z"/>
					<path style="fill:#F8FAFF;" d="M68.071,294.081c0,2.377-1.925,4.303-4.298,4.303c-2.38,0-4.302-1.926-4.302-4.303       c0-2.374,1.922-4.302,4.302-4.302C66.146,289.779,68.071,291.707,68.071,294.081z"/>
					<path style="fill:#F8FAFF;" d="M81.566,294.081c0,2.377-1.924,4.303-4.302,4.303c-2.376,0-4.302-1.926-4.302-4.303       c0-2.374,1.926-4.302,4.302-4.302C79.642,289.779,81.566,291.707,81.566,294.081z"/>
				</g>
			</g>
		</g>
		<g>
			<path style="fill:#568EAF;" d="M400.975,129.791c-0.01,0.21-0.058,0.931-0.09,1.967c2.776,0.647,3.493,4.014,2.171,6.093     c0.497,0.58,0.795,1.316,0.899,2.083l15.616-8.184c0-20.354,16.553-36.9,36.901-36.9V76.217     C426.507,76.217,402.009,100.076,400.975,129.791z"/>
			<path style="fill:#FF4E4E;" d="M456.472,76.217v18.634c20.346,0,36.9,16.546,36.9,36.9H512     C512,101.127,487.095,76.217,456.472,76.217"/>
			<path style="fill:#FFAE24;" d="M455.938,168.646v18.638c30.617,0,56.062-24.913,56.062-55.533h-18.628     C493.372,152.098,476.28,168.646,455.938,168.646"/>
		</g>
	</g>
	<g>
		<path style="fill:#EC9513;" d="M31.469,362.331c4.554,1.743,8.804,3.718,13.285,5.431c3.509,1.346,5.784,2.285,9.02,3.634    c2.843,1.183,6.884,2.653,8.363,4.913c1.537,2.348,1.535,5.697,2.863,8.097c2.245,4.029,6.074,4.427,10.216,6.308    c17.336,7.873,34.428,14.996,52.286,22.607c2.226,0.948,7.098,2.15,8.269,4.705c1.074,2.335-0.483,6.66-1.021,9.342    c0,0-20.438,69.584-25.221,69.19c-1.782-0.151-5.021-0.98-7.279-1.941c-15.339-6.54-32.731-14.142-47.337-20.373    c-15.572-6.63-31.343-13.371-47.335-20.365c-3.35-1.464-6.069-2.203-7.381-6.585c-0.687-2.317,0.606-7.029,1.157-10.143    c3.464-19.551,18.956-45.675,22.415-64.969c0.584-3.259,0.923-6.682,2.049-9.802C26.785,360.219,29.771,361.676,31.469,362.331"/>
		<path style="fill:#FF4E4E;" d="M128.713,407.747c0,10.48-8.498,18.985-18.986,18.985c-10.48,0-18.982-8.504-18.982-18.985    c0-10.487,8.502-18.983,18.982-18.983C120.215,388.764,128.713,397.26,128.713,407.747"/>
		<polygon style="fill:#F8FAFF;" points="102.653,401.202 96.019,407.28 102.653,413.361 103.729,412.027 98.594,407.28     103.729,402.535   "/>
		<polygon style="fill:#F8FAFF;" points="105.805,413.622 107.689,413.622 112.62,400.935 110.736,400.935   "/>
		<polygon style="fill:#F8FAFF;" points="115.754,401.202 114.678,402.535 119.812,407.28 114.678,412.027 115.754,413.361     122.388,407.28   "/>
		<path style="fill:#FFAE24;" d="M20.238,368.761c4.555,1.746,8.799,3.717,13.282,5.437c3.507,1.343,5.784,2.283,9.021,3.629    c2.845,1.185,6.883,2.658,8.359,4.909c1.546,2.355,1.538,5.704,2.873,8.104c2.24,4.025,6.067,4.423,10.216,6.303    c17.332,7.874,34.421,15,52.28,22.603c2.229,0.956,7.099,2.158,8.268,4.713c1.076,2.333-0.482,6.654-1.018,9.338    c-3.668,18.353-7.346,35.467-11.18,54.104c-0.508,2.441-0.763,7.601-2.809,8.658c-1.591,0.816-5.021-0.98-7.279-1.941    c-15.339-6.54-32.729-14.142-47.337-20.368c-15.572-6.635-31.343-13.373-47.335-20.369c-3.35-1.464-6.069-2.203-7.379-6.585    c-0.692-2.317,0.604-7.029,1.155-10.143c3.467-19.551,7.723-39.242,11.18-58.54c0.583-3.253,0.928-6.678,2.053-9.799    C15.554,366.646,18.536,368.111,20.238,368.761"/>
	</g>
	<g>
		<path style="fill:#FF4E4E;" d="M384.545,417.183c3.98-3.262,9.014-5.077,14.173-5.097l44.195-0.214    c6.028-0.028,11.703,2.289,15.986,6.531c4.283,4.243,6.66,9.899,6.68,15.932l0.038,7.218c0.035,6.834-2.986,13.237-8.279,17.572    c-3.985,3.265-9.019,5.074-14.171,5.103l-15.575,0.072c-2.084,0.013-4.008,0.762-5.867,2.284c-1.399,1.152-2.579,2.581-3.625,3.85    c-0.486,0.596-0.945,1.156-1.396,1.654c-0.257,0.282-0.533,0.591-0.83,0.921c-1.273,1.432-2.863,3.214-4.392,4.467    c-1.072,0.873-1.748,1.196-2.141,1.312c-1.877,0.57-3.814-0.206-4.521-1.245c-0.467-0.682-0.446-1.466-0.355-3.026    c0.03-0.62,0.073-1.326,0.063-2.082c0-0.235,0.005-0.479,0.013-0.736c0.045-1.865,0.143-5.738-3.937-6.983    c-1.13-0.353-2.514-0.534-4.116-0.745c-2.225-0.297-4.749-0.633-6.787-1.474c-8.096-3.361-13.361-11.411-13.401-20.509    l-0.039-7.23C376.237,427.923,379.251,421.518,384.545,417.183"/>
		<g>
			<path style="fill:#FFFFFF;" d="M397.655,436.276c0.721-0.582,1.582-0.888,2.508-0.895c1.06-0.01,2.063,0.404,2.821,1.152     c0.751,0.743,1.181,1.742,1.181,2.808c0.005,1.213-0.524,2.343-1.463,3.113c-0.711,0.579-1.576,0.891-2.494,0.897     c-2.204,0.018-4.002-1.766-4.011-3.964C396.184,438.182,396.715,437.045,397.655,436.276"/>
			<path style="fill:#FFFFFF;" d="M417.677,436.159c0.711-0.583,1.575-0.891,2.502-0.895c2.199-0.016,3.994,1.758,4.006,3.962     c0.01,1.212-0.523,2.343-1.457,3.111c-0.715,0.58-1.582,0.891-2.506,0.893c-1.064,0.01-2.068-0.397-2.825-1.148     c-0.757-0.747-1.177-1.742-1.185-2.811C416.203,438.061,416.741,436.924,417.677,436.159"/>
			<path style="fill:#FFFFFF;" d="M437.694,436.043c0.717-0.584,1.581-0.896,2.503-0.898c1.064-0.015,2.069,0.397,2.83,1.151     c0.752,0.743,1.173,1.74,1.177,2.809c0.013,1.207-0.523,2.343-1.459,3.112c-0.715,0.582-1.581,0.892-2.499,0.897     c-1.068,0.003-2.073-0.406-2.829-1.153c-0.754-0.745-1.179-1.742-1.181-2.809C436.225,437.944,436.756,436.811,437.694,436.043"/>
		</g>
	</g>
	<g>
		<g>
			<path style="fill-rule:evenodd;clip-rule:evenodd;fill:#7AB0C9;" d="M234.085,384.96c0.405,12.05,3.065,31.666,4.536,46.822     c1.14,11.741,2.809,18.177-4.918,22.122c-1.466,0.748-4.038,0.628-5.042,2.699c26.689-0.274,54.467-0.133,82.161-0.018     c7.765,0.033,22.929,1.281,24.82-3.724c1.41-3.768-2.119-13.2-3.014-17.38c-3.836-18.056-7.058-35.581-11.262-52.356     C292.548,383.409,263.257,384.249,234.085,384.96"/>
			<path style="fill-rule:evenodd;clip-rule:evenodd;fill:#E3F6FC;" d="M295.811,454.677l36.403,0.01     c1.678-0.048,2.742-0.965,2.468-2.762c-0.541-3.624-9.672-51.287-13.313-68.8c-0.003-0.274,0.015-0.524,0.395-0.484     c2.445,0.868,7.304,0.003,9.273-0.013c2.883,14.768,14.04,63.798,14.249,68.969c0.209,5.172-0.949,9.334-5.084,11.856     c-1.599,0.979-3.447,1.312-5.406,1.403c-0.154,0.007-0.299,0.038-0.45,0.038l-38.539-0.015c-3.286-0.005-5.958-2.287-5.954-5.104     C289.852,456.956,292.523,454.677,295.811,454.677"/>
			<path style="fill-rule:evenodd;clip-rule:evenodd;fill:#CCE5EF;" d="M221.067,461.069c0,2.079,1.569,3.755,3.503,3.76     l69.637,0.029c1.934,0,3.504-1.677,3.504-3.756v-2.67c0-2.073-1.565-3.755-3.502-3.757l-69.639-0.033     c-1.932,0-3.501,1.679-3.501,3.758L221.067,461.069z"/>
		</g>
		<g>
			<g>
				<path style="fill:#7AB0C9;" d="M446.527,343.83l0.074-173.62c0.011-24.647-19.958-44.632-44.607-44.642l21.607,0.01      c24.647,0.01,44.62,19.997,44.608,44.64l-0.078,173.618c-0.013,24.647-20,44.618-44.651,44.606l-21.601-0.01      C426.53,388.44,446.519,368.469,446.527,343.83"/>
				<path style="fill:#CCE5EF;" d="M137.017,125.452l21.609,0.01l243.371,0.106c24.646,0.01,44.616,19.995,44.611,44.642      l-0.083,173.618c-0.01,24.645-19.995,44.613-44.645,44.606l-243.364-0.108l-21.612-0.013      c-24.65-0.01-44.618-19.998-44.608-44.642l0.079-173.618C92.38,145.411,112.364,125.438,137.017,125.452"/>
				<path style="fill:#42758A;" d="M143.94,131.682l20.406,0.01l229.797,0.101c23.276,0.012,42.132,18.879,42.121,42.156      l-0.072,163.939c-0.012,23.271-18.886,42.121-42.16,42.119l-229.8-0.108l-20.402-0.005      c-23.273-0.013-42.13-18.883-42.118-42.154l0.067-163.936C101.795,150.531,120.662,131.675,143.94,131.682"/>
			</g>
			<g>
				<g>
					<g>
						<path style="fill:#FF4E4E;" d="M279.488,256.561c0,30.933-15.772,56.272-46.65,56.507c-0.145,0.001-0.291,0.002-0.436,0.002        c-31.079,0-56.278-25.2-56.278-56.278c0-31.084,25.2-56.283,56.278-56.283c18.565,0,35.026,8.993,45.277,22.86        C277.727,223.433,279.488,244.133,279.488,256.561L279.488,256.561z"/>
						<polygon style="fill:#FFAE24;" points="365.514,355.037 288.681,201.369 211.851,355.037       "/>
						<path style="fill:#568EAF;" d="M288.681,256.791c0-12.518-4.088-24.073-11.002-33.423l-44.841,89.692        C263.719,312.818,288.681,287.724,288.681,256.791"/>
					</g>
					<g>
						
							<rect x="171.349" y="190.126" transform="matrix(0.7072 -0.707 0.707 0.7072 -86.1555 181.3971)" style="fill:#F8FAFF;" width="9.2" height="9.2"/>
						
							<rect x="171.349" y="251.927" transform="matrix(0.7069 -0.7073 0.7073 0.7069 -129.8736 199.6348)" style="fill:#F8FAFF;" width="9.201" height="9.201"/>
						
							<rect x="171.349" y="313.729" transform="matrix(0.7069 -0.7073 0.7073 0.7069 -173.5865 217.7484)" style="fill:#F8FAFF;" width="9.202" height="9.202"/>
						<path style="fill:#F8FAFF;" d="M176.123,316.634c-0.997,0-1.804-0.815-1.804-1.808V198.753c0-0.997,0.806-1.809,1.804-1.809        c0.999,0,1.806,0.811,1.806,1.809v116.074C177.93,315.819,177.122,316.634,176.123,316.634"/>
					</g>
				</g>
				<path style="fill:#F8FAFF;" d="M263.231,264.396c-0.38,0.478-0.523,1.063-0.397,1.648c0.186,0.859,0.906,1.446,1.332,1.798      l0.147,0.122c3.372,3.011,7.085,6.991,9.099,13.712c0.206,0.678,0.38,1.363,0.528,2.044l0,0      c1.151,5.314,0.453,10.018-0.383,13.916c-0.043,0.2-0.073,0.411-0.106,0.626c-0.02,0.141-0.04,0.284-0.063,0.41      c-10.274,0.23-23.082,6.799-24.837,15.387l-0.078,0.365c-0.117,0.507-0.244,1.087-0.229,1.673      c0.058,2.801,1.386,4.991,3.723,6.206c2.768,1.434,6.85,1.386,10.407-0.121c4.845-2.056,7.736-6.274,9.494-9.268      c1.801-3.079,3.067-5.655,3.982-8.108c0.165-0.435,0.277-0.868,0.375-1.245c0.068-0.262,0.131-0.506,0.202-0.728      c7.878,0.444,15.485,2.98,22.629,7.543c8.616,5.5,13.817,11.917,16.876,20.806c1.2,3.492,2.078,7.462,2.609,11.762      c0.44,3.601,0.511,7.273,0.198,10.615c-0.579,6.212-2.298,11.66-4.968,15.756c-0.054,0.077-0.13,0.164-0.205,0.257      c-0.436,0.525-1.165,1.406-0.913,2.57c0.054,0.248,0.151,0.488,0.289,0.714l0.262,0.419l0.465,0.148      c1.96,0.623,3.049-1.141,3.517-1.895l0.16-0.258c1.626-2.462,2.93-5.288,3.76-8.164c2.327-8.058,2.535-16.266,0.652-25.831      c-0.081-0.404-0.165-0.812-0.254-1.218c-1.114-5.15-2.739-9.651-4.84-13.386c-3.882-6.915-9.537-12.376-17.796-17.186      c-6.603-3.847-13.768-6.116-21.313-6.753c0.961-4.791,1.771-9.81,0.453-15.888c-0.257-1.176-0.586-2.37-0.99-3.55      c-1.624-4.769-4.331-8.997-8.278-12.93l-0.131-0.132c-1.316-1.351-2.712-2.59-4.007-2.531      C264.057,263.729,263.574,263.974,263.231,264.396z M271.781,303.67c-1.037,2.816-2.195,5.224-3.537,7.363      c-1.963,3.112-4.212,6.267-8.258,7.653c-1.872,0.643-4.491,0.878-6.136-0.051c-0.755-0.422-1.21-1.052-1.397-1.922      c-0.035-0.164-0.062-0.335-0.079-0.519c-0.073-0.789,0.277-2.099,0.644-2.865c2.431-5.106,11.373-9.921,19.102-10.501      c-0.025,0.058-0.045,0.116-0.068,0.172C271.958,303.221,271.863,303.449,271.781,303.67z"/>
				<g>
					<rect x="368.352" y="278.177" style="fill:#7AB0C9;" width="47.894" height="12.464"/>
					<rect x="367.741" y="243.287" style="fill:#7AB0C9;" width="47.897" height="24.924"/>
					<rect x="118.896" y="230.027" style="fill:#7AB0C9;" width="29.923" height="127.564"/>
					<rect x="186.928" y="154.219" style="fill:#7AB0C9;" width="115.485" height="21.567"/>
					<g>
						<g>
							<g>
								<rect x="316.046" y="180.513" style="fill:#CCE5EF;" width="21.567" height="21.564"/>
								<g>
									<rect x="316.046" y="154.219" style="fill:#32C1A8;" width="21.567" height="21.567"/>
									<rect x="316.046" y="206.812" style="fill:#FFC972;" width="21.567" height="21.564"/>
								</g>
							</g>
							<g>
								<g>
									<rect x="342.068" y="180.513" style="fill:#FF8777;" width="21.567" height="21.564"/>
									<g>
										<rect x="342.068" y="154.219" style="fill:#7AB0C9;" width="21.567" height="21.567"/>
										<rect x="367.615" y="154.219" style="fill:#24004D;" width="21.564" height="21.567"/>
										<rect x="367.615" y="180.513" style="fill:#24004D;" width="21.564" height="21.564"/>
										<rect x="342.068" y="206.812" style="fill:#F8FAFF;" width="21.567" height="21.564"/>
										<rect x="367.615" y="206.812" style="fill:#24004D;" width="21.564" height="21.564"/>
									</g>
								</g>
								<g>
									<rect x="367.615" y="180.513" style="fill:#CCE5EF;" width="21.564" height="21.564"/>
									<g>
										<rect x="367.615" y="154.219" style="fill:#FF4E4E;" width="21.564" height="21.567"/>
										<rect x="393.158" y="154.219" style="fill:#FFAE24;" width="21.566" height="21.567"/>
										<rect x="393.158" y="180.513" style="fill:#A8E0D4;" width="21.566" height="21.564"/>
										<rect x="367.615" y="206.812" style="fill:#FFA219;" width="21.564" height="21.564"/>
										<rect x="393.158" y="206.812" style="fill:#FFA097;" width="21.566" height="21.564"/>
									</g>
								</g>
							</g>
						</g>
					</g>
				</g>
				<g>
					<polygon style="fill:#F8FAFF;" points="374.395,307.673 374.104,308.843 372.883,309.025 375.255,330.211 391.648,339.471        402.497,329.804 395.177,312.46      "/>
					<path style="fill:#42758A;" d="M385.645,320.296l-11.25-12.622l-1.512,1.352l11.245,12.616c-0.465,0.961-0.346,2.15,0.408,3       c0.995,1.111,2.702,1.214,3.821,0.216c1.114-0.991,1.213-2.702,0.219-3.816C387.819,320.194,386.647,319.936,385.645,320.296"/>
					<path style="fill:#F8FAFF;" d="M410.112,333.8c0.624,0.698,0.564,1.775-0.138,2.4l-12.83,11.437       c-0.704,0.627-1.783,0.562-2.405-0.136l-3.08-3.459c-0.623-0.703-0.562-1.774,0.139-2.399l12.834-11.44       c0.704-0.624,1.774-0.562,2.398,0.136L410.112,333.8z"/>
				</g>
				<g>
					<g>
						<g>
							<path style="fill-rule:evenodd;clip-rule:evenodd;fill:#FFAE24;" d="M184.719,114.339c0-26.87-21.783-48.652-48.651-48.652         s-48.654,21.782-48.654,48.652c0,17.742,9.497,33.257,23.683,41.754v19.064c0,4.131,3.345,7.478,7.474,7.478h35.723         c4.126,0,7.473-3.347,7.473-7.478v-19.508C175.548,147.059,184.719,131.771,184.719,114.339z"/>
							<path style="fill-rule:evenodd;clip-rule:evenodd;fill:#F8FAFF;" d="M146.179,135.471         c-0.013,12.556,0.048,35.52,0.206,48.609c0.005,0.748,0.065,1.815,0.03,2.86c-0.03,1.179,0.168,2.201-0.776,2.762         c-0.198,0.116-1.141,0.186-1.536-0.106c-1.092-0.816-0.682-4.202-0.697-5.64c-0.156-12.941-0.126-35.547-0.208-48.431         c-4.513-0.452-9.016-0.112-13.531-0.322c0.003,13.073,0.405,34.431,0.566,47.951c0.02,1.46,0.669,4.73-0.563,5.626         c-0.397,0.296-1.208,0.283-1.627-0.014c-0.831-0.595-0.741-1.997-0.756-2.868c-0.16-13.302-0.493-34.59-0.654-47.871         c-0.008-0.661,0.187-2.628,0.054-2.771c-0.222-0.242-3.081-0.003-3.784-0.04c-2.796-0.151-6.208-0.871-8.788-3.044         c-4.772-4.016-5.089-10.381-2.157-14.325c3.561-4.782,10.726-4.745,15.159,0.522c3.491,4.146,2.487,9.025,2.603,13.88         c4.392,0.062,8.782,0.097,13.17,0.147c-0.206-2.217-0.247-4.781,0.003-7.244c0.08-0.796,0.07-1.683,0.244-2.406         c1.66-6.919,10.308-10.688,15.801-5.909c0.033,0.028,0.06,0.062,0.09,0.089c4.507,4.505,4.517,11.579-0.531,15.729         C154.612,135.854,150.302,135.361,146.179,135.471z M157.823,128.804c2.082-2.663,2.048-7.153-0.658-9.659         c-2.42-2.238-5.957-1.784-8.211,0c-3.169,2.501-2.83,5.489-2.966,8.191c-0.098,1.898-0.019,3.786,0.33,5.095         C149.871,132.627,154.737,132.751,157.823,128.804z M117.279,117.462c-1.336,0.415-3.296,2.425-3.746,3.712         c-0.696,2.002-0.304,5.318,1.353,7.339c2.604,3.189,6.181,3.648,9.062,3.678c0.818,0.01,2.33,0.27,2.614-0.06         c0.023-0.028,0.055-1.83,0.061-2.594c0.01-1.079,0.007-2.11-0.033-2.679c-0.204-2.924-0.404-5.654-2.979-7.723         C121.509,117.452,119.096,116.89,117.279,117.462z"/>
						</g>
						<g>
							<path style="fill:#F8FAFF;" d="M108.756,148.153c-1.283,0-2.568-0.485-3.562-1.445c-5.492-5.318-9.549-11.984-11.742-19.268         c-0.815-2.708,0.718-5.571,3.43-6.382c2.712-0.816,5.569,0.721,6.381,3.433c1.689,5.612,4.821,10.749,9.063,14.853         c2.03,1.975,2.082,5.212,0.111,7.253C111.434,147.626,110.098,148.153,108.756,148.153z"/>
							<path style="fill:#F8FAFF;" d="M96.682,119.642c-2.829,0-5.124-2.293-5.124-5.119c0-15.777,8.051-30.096,21.548-38.308         c2.415-1.472,5.565-0.706,7.039,1.712c1.469,2.418,0.705,5.567-1.713,7.038c-10.41,6.338-16.624,17.385-16.624,29.558         C101.807,117.349,99.513,119.642,96.682,119.642z"/>
						</g>
					</g>
					<path style="fill-rule:evenodd;clip-rule:evenodd;fill:#F8FAFF;" d="M156.61,187.177v-2.082c0-1.45-1.176-2.625-2.629-2.625       h-34.347c-1.448,0-2.624,1.175-2.624,2.625v2.082c0,1.45,1.176,2.621,2.624,2.621c-1.448,0-2.624,1.18-2.624,2.632v2.079       c0,1.453,1.176,2.626,2.624,2.626c-1.448,0-2.624,1.175-2.624,2.628v2.081c0,1.452,1.176,2.626,2.624,2.626h6.879       c0.032,5.249,4.297,9.499,9.554,9.499c5.258,0,9.523-4.25,9.554-9.499h8.359c1.453,0,2.629-1.175,2.629-2.626v-2.081       c0-1.453-1.176-2.628-2.629-2.628c1.453,0,2.629-1.173,2.629-2.626v-2.079c0-1.452-1.176-2.632-2.629-2.632       C155.434,189.798,156.61,188.627,156.61,187.177z"/>
				</g>
			</g>
		</g>
	</g>
</g>















</svg>
